<svg xmlns="http://www.w3.org/2000/svg" viewBox="0 0 50 50"><path d="M 11.9375 0 C 11.808594 0.0078125 11.6875 0.03125 11.5625 0.09375 C 11.070313 0.339844 10.847656 0.945313 11.09375 1.4375 L 14.09375 7.4375 C 14.242188 7.734375 14.542969 7.957031 14.875 8 L 16.0625 8.15625 C 16.253906 7.460938 16.507813 6.804688 16.8125 6.21875 L 15.65625 6.0625 L 12.90625 0.5625 C 12.722656 0.191406 12.328125 -0.0234375 11.9375 0 Z M 38.0625 0 C 37.671875 -0.0234375 37.277344 0.191406 37.09375 0.5625 L 34.34375 6.09375 L 33.15625 6.28125 C 33.46875 6.867188 33.707031 7.507813 33.90625 8.1875 L 35.15625 8 C 35.472656 7.945313 35.761719 7.722656 35.90625 7.4375 L 38.90625 1.4375 C 39.152344 0.945313 38.929688 0.339844 38.4375 0.09375 C 38.3125 0.03125 38.191406 0.0078125 38.0625 0 Z M 23 1 C 23 1 20.707031 1.988281 20.125 5.09375 C 20.121094 5.105469 20.125 5.113281 20.125 5.125 C 18.75 6.429688 17.65625 8.34375 17.65625 11.09375 C 17.65625 13.230469 18.597656 14.648438 20.09375 15.5 C 21.453125 14.882813 23.105469 14.5625 25 14.5625 C 26.894531 14.5625 28.546875 14.882813 29.90625 15.5 C 31.402344 14.648438 32.34375 13.230469 32.34375 11.09375 C 32.34375 8.546875 31.273438 6.625 29.90625 5.28125 C 29.402344 2.050781 27 1 27 1 L 27 3.40625 C 26.25 3.105469 25.546875 2.9375 25 2.9375 C 24.453125 2.9375 23.746094 3.078125 23 3.34375 Z M 5.0625 6 C 4.933594 5.992188 4.785156 6.015625 4.65625 6.0625 C 4.136719 6.25 3.875 6.824219 4.0625 7.34375 L 8.0625 18.34375 C 8.179688 18.664063 8.449219 18.894531 8.78125 18.96875 L 15.9375 20.5625 C 16.097656 19.878906 16.316406 19.230469 16.625 18.65625 L 9.75 17.15625 L 5.9375 6.65625 C 5.796875 6.265625 5.453125 6.019531 5.0625 6 Z M 44.9375 6 C 44.546875 6.019531 44.203125 6.265625 44.0625 6.65625 L 40.25 17.15625 L 33.375 18.65625 C 33.683594 19.230469 33.902344 19.878906 34.0625 20.5625 L 41.21875 18.96875 C 41.554688 18.894531 41.820313 18.664063 41.9375 18.34375 L 45.9375 7.34375 C 46.125 6.824219 45.863281 6.25 45.34375 6.0625 C 45.214844 6.015625 45.066406 5.992188 44.9375 6 Z M 25 16.5625 C 20.914063 16.5625 17.65625 18.234375 17.65625 22.84375 C 17.65625 25.3125 18.59375 27.445313 20.03125 28.96875 C 21.492188 28.453125 23.152344 28.15625 25 28.15625 C 26.847656 28.15625 28.507813 28.453125 29.96875 28.96875 C 31.402344 27.449219 32.34375 25.3125 32.34375 22.84375 C 32.34375 18.234375 29.085938 16.5625 25 16.5625 Z M 6.90625 21 C 6.613281 21.03125 6.324219 21.183594 6.15625 21.4375 L 0.15625 30.4375 C -0.148438 30.898438 -0.0234375 31.535156 0.4375 31.84375 C 0.609375 31.957031 0.808594 32 1 32 C 1.324219 32 1.652344 31.851563 1.84375 31.5625 L 7.46875 23.125 L 15.84375 24.8125 C 15.730469 24.167969 15.65625 23.519531 15.65625 22.84375 C 15.65625 22.808594 15.6875 22.753906 15.6875 22.71875 L 7.1875 21.03125 C 7.089844 21.011719 7.003906 20.988281 6.90625 21 Z M 43.09375 21 C 42.996094 20.988281 42.914063 21.011719 42.8125 21.03125 L 34.3125 22.71875 C 34.3125 22.753906 34.34375 22.808594 34.34375 22.84375 C 34.34375 23.519531 34.265625 24.167969 34.15625 24.8125 L 42.53125 23.125 L 48.15625 31.5625 C 48.347656 31.851563 48.675781 32 49 32 C 49.191406 32 49.390625 31.957031 49.5625 31.84375 C 50.023438 31.535156 50.152344 30.898438 49.84375 30.4375 L 43.84375 21.4375 C 43.675781 21.183594 43.386719 21.03125 43.09375 21 Z M 16.96875 28.09375 L 8.5625 32.09375 C 8.3125 32.214844 8.113281 32.421875 8.03125 32.6875 L 3.03125 48.6875 C 2.867188 49.214844 3.160156 49.804688 3.6875 49.96875 C 3.789063 50 3.902344 50 4 50 C 4.425781 50 4.835938 49.742188 4.96875 49.3125 L 9.8125 33.71875 L 18.09375 29.78125 C 17.667969 29.261719 17.289063 28.695313 16.96875 28.09375 Z M 33.03125 28.09375 C 32.714844 28.695313 32.332031 29.257813 31.90625 29.78125 L 40.1875 33.71875 L 45.03125 49.3125 C 45.164063 49.742188 45.574219 50 46 50 C 46.097656 50 46.214844 50 46.3125 49.96875 C 46.839844 49.804688 47.132813 49.214844 46.96875 48.6875 L 41.96875 32.6875 C 41.886719 32.421875 41.691406 32.214844 41.4375 32.09375 Z M 25 30.15625 C 19.761719 30.15625 15.5625 32.691406 15.5625 38.03125 C 15.5625 43.371094 19.765625 50.0625 25 50.0625 C 30.234375 50.0625 34.4375 43.371094 34.4375 38.03125 C 34.4375 32.691406 30.238281 30.15625 25 30.15625 Z"></path></svg>