<svg width="35" height="35" viewBox="0 0 35 35" fill="none" xmlns="http://www.w3.org/2000/svg">
<circle cx="17.5" cy="17.5" r="17.5" fill="white"/>
<path d="M17.4207 3.74664L4.95698 9.76363C4.80068 9.83909 4.70142 9.99729 4.70142 10.1708V24.9764C4.70142 25.15 4.80074 25.3082 4.95698 25.3836L17.4207 31.4006C17.6691 31.5205 17.9586 31.5205 18.207 31.4006L30.6707 25.3836C30.827 25.3082 30.9263 25.15 30.9263 24.9764V10.1708C30.9263 9.99729 30.827 9.83909 30.6707 9.76363L18.207 3.74664C17.9586 3.62677 17.6691 3.62677 17.4207 3.74664Z" fill="#FFE17D"/>
<path d="M4.7766 9.92334C4.72909 9.9957 4.70142 10.0809 4.70142 10.1709V24.9765C4.70142 25.15 4.80074 25.3082 4.95698 25.3837L17.4207 31.4006C17.5449 31.4606 17.6794 31.4905 17.8139 31.4905V16.2172L4.7766 9.92334Z" fill="#FFC350"/>
<path d="M30.8512 9.92334C30.8987 9.9957 30.9264 10.0809 30.9264 10.1709V24.9765C30.9264 25.15 30.8271 25.3082 30.6708 25.3837L18.2071 31.4006C18.083 31.4606 17.9485 31.4906 17.814 31.4906V16.2172L30.8512 9.92334Z" fill="#FFD164"/>
<path d="M8.43124 24.1872C8.36546 24.1872 8.29832 24.1726 8.23521 24.1421L6.31092 23.2131C6.08575 23.1045 5.9917 22.8343 6.10032 22.6095C6.2085 22.3848 6.47961 22.2912 6.70391 22.3989L8.62819 23.328C8.85337 23.4366 8.94741 23.7069 8.8388 23.9316C8.76111 24.0931 8.59949 24.1872 8.43124 24.1872Z" fill="#FFE17D"/>
<path d="M10.2023 23.0343C10.1365 23.0343 10.0694 23.0197 10.0063 22.9893L6.31353 21.2067C6.0888 21.0981 5.99431 20.8279 6.10293 20.6031C6.21111 20.3788 6.48266 20.2848 6.70652 20.3925L10.3992 22.1751C10.624 22.2837 10.7184 22.5539 10.6098 22.7787C10.5322 22.9402 10.3706 23.0343 10.2023 23.0343Z" fill="#FFF6D8"/>
<path d="M26.4332 12.0489L13.3501 5.72852L9.90137 7.40017L23.0138 13.7304L26.4332 12.0489Z" fill="#FF8087"/>
<path d="M23.0137 13.7305V18.6344C23.0137 18.8011 23.1879 18.9104 23.3381 18.838L26.1775 17.4672C26.3338 17.3917 26.4331 17.2336 26.4331 17.06V12.0491L23.0137 13.7305Z" fill="#E6646E"/>
</svg>
