<svg width="35" height="35" viewBox="0 0 35 35" fill="none" xmlns="http://www.w3.org/2000/svg">
<path d="M35 17.5C35 27.165 27.165 35 17.5 35C7.83502 35 0 27.165 0 17.5C0 7.83502 7.83502 0 17.5 0C27.165 0 35 7.83502 35 17.5Z" fill="#B0B0B0"/>
<path d="M35 17.5C35 27.165 27.165 35 17.5 35C7.83502 35 0 27.165 0 17.5C0 7.83502 7.83502 0 17.5 0C27.165 0 35 7.83502 35 17.5Z" fill="#B0B0B0"/>
<path d="M5 14.4491V13.246C5 13.1152 5.1061 13.009 5.23701 13.009H11.9609C12.0917 13.009 12.1979 13.1151 12.1979 13.246V16.2208C12.1979 16.3517 12.0918 16.4579 11.9609 16.4579H5.23701C5.10615 16.4579 5 16.3518 5 16.2208V15.8023V14.4491Z" fill="#E60120"/>
<path d="M10.9023 13.9202H5.91113V15.5468H10.9023V13.9202Z" fill="#FB0125"/>
<path d="M11.9607 13.009H10.665C10.7959 13.009 10.9021 13.1151 10.9021 13.246V16.2208C10.9021 16.3517 10.7959 16.4579 10.665 16.4579H11.9607C12.0916 16.4579 12.1978 16.3518 12.1978 16.2208V13.246C12.1977 13.1151 12.0916 13.009 11.9607 13.009Z" fill="#CC111E"/>
<path d="M20.862 16.4579H14.1381C14.0073 16.4579 13.9011 16.3518 13.9011 16.2208V13.246C13.9011 13.1152 14.0072 13.009 14.1381 13.009H20.862C20.9929 13.009 21.099 13.1151 21.099 13.246V16.2208C21.099 16.3518 20.9929 16.4579 20.862 16.4579Z" fill="#E60120"/>
<path d="M19.8074 13.9202H14.8125V15.5468H19.8074V13.9202Z" fill="#FB0125"/>
<path d="M20.8618 13.009H19.5664C19.6973 13.009 19.8034 13.1151 19.8034 13.246V16.2208C19.8034 16.3517 19.6973 16.4579 19.5664 16.4579H20.8618C20.9927 16.4579 21.0988 16.3518 21.0988 16.2208V13.246C21.0988 13.1151 20.9927 13.009 20.8618 13.009Z" fill="#CC111E"/>
<path d="M29.7628 16.4579H23.039C22.9082 16.4579 22.802 16.3518 22.802 16.2208V13.246C22.802 13.1152 22.9081 13.009 23.039 13.009H29.7629C29.8937 13.009 29.9999 13.1151 29.9999 13.246V16.2208C29.9998 16.3518 29.8937 16.4579 29.7628 16.4579Z" fill="#E60120"/>
<path d="M28.696 13.9202H23.7134V15.5468H28.696V13.9202Z" fill="#FB0125"/>
<path d="M11.9608 26.3753H5.23701C5.10615 26.3753 5 26.2692 5 26.1383V23.1635C5 23.0327 5.1061 22.9265 5.23701 22.9265H11.9609C12.0917 22.9265 12.1979 23.0326 12.1979 23.1635V26.1383C12.1978 26.2692 12.0917 26.3753 11.9608 26.3753Z" fill="#E60120"/>
<path d="M10.9028 23.8379H5.91113V25.4645H10.9028V23.8379Z" fill="#FB0125"/>
<path d="M20.862 26.3753H14.1381C14.0073 26.3753 13.9011 26.2692 13.9011 26.1383V23.1635C13.9011 23.0327 14.0072 22.9265 14.1381 22.9265H20.862C20.9929 22.9265 21.099 23.0326 21.099 23.1635V26.1383C21.099 26.2692 20.9929 26.3753 20.862 26.3753Z" fill="#E60120"/>
<path d="M19.794 23.8379H14.8125V25.4645H19.794V23.8379Z" fill="#FB0125"/>
<path d="M29.7628 26.3753H23.039C22.9082 26.3753 22.802 26.2692 22.802 26.1383V23.1635C22.802 23.0327 22.9081 22.9265 23.039 22.9265H29.7629C29.8937 22.9265 29.9999 23.0326 29.9999 23.1635V26.1383C29.9998 26.2692 29.8937 26.3753 29.7628 26.3753Z" fill="#E60120"/>
<path d="M28.6992 23.8379H23.7134V25.4645H28.6992V23.8379Z" fill="#FB0125"/>
<path d="M16.734 11.4488H10.0102C9.87935 11.4488 9.77319 11.3427 9.77319 11.2118V8.23701C9.77319 8.10615 9.8793 8 10.0102 8H16.7341C16.8649 8 16.9711 8.1061 16.9711 8.23701V11.2118C16.971 11.3427 16.8649 11.4488 16.734 11.4488Z" fill="#E60120"/>
<path d="M15.6817 8.91089H10.6841V10.5375H15.6817V8.91089Z" fill="#FB0125"/>
<path d="M16.7339 8H15.4382C15.5691 8 15.6752 8.1061 15.6752 8.23701V11.2118C15.6752 11.3427 15.5691 11.4488 15.4382 11.4488H16.7339C16.8648 11.4488 16.9709 11.3427 16.9709 11.2118V8.23696C16.9709 8.10605 16.8648 8 16.7339 8Z" fill="#CC111E"/>
<path d="M22.4453 8.00005H25.635C25.7658 8.00005 25.872 8.10615 25.872 8.23706V11.2119C25.872 11.3427 25.7659 11.4489 25.635 11.4489H18.9111C18.7802 11.4489 18.6741 11.3428 18.6741 11.2119V8.23701C18.6741 8.10615 18.7802 8 18.9111 8H21.0988H22.4453V8.00005Z" fill="#E60120"/>
<path d="M24.5766 8.91089H19.5854V10.5375H24.5766V8.91089Z" fill="#FB0125"/>
<path d="M16.734 21.4666H10.0102C9.87935 21.4666 9.77319 21.3605 9.77319 21.2296V18.2548C9.77319 18.124 9.8793 18.0178 10.0102 18.0178H16.7341C16.8649 18.0178 16.9711 18.1239 16.9711 18.2548V21.2296C16.971 21.3605 16.8649 21.4666 16.734 21.4666Z" fill="#E60120"/>
<path d="M15.6774 18.9292H10.6841V20.5558H15.6774V18.9292Z" fill="#FB0125"/>
<path d="M25.635 21.4666H18.9111C18.7802 21.4666 18.6741 21.3605 18.6741 21.2296V18.2548C18.6741 18.124 18.7802 18.0178 18.9111 18.0178H25.635C25.7658 18.0178 25.872 18.1239 25.872 18.2548V21.2296C25.872 21.3605 25.7658 21.4666 25.635 21.4666Z" fill="#E60120"/>
<path d="M24.5777 18.9292H19.5854V20.5558H24.5777V18.9292Z" fill="#FB0125"/>
<path d="M29.7629 8H27.8122C27.6813 8 27.5752 8.1061 27.5752 8.23701V11.2118C27.5752 11.3427 27.6813 11.4488 27.8122 11.4488H29.7629C29.8938 11.4488 29.9999 11.3427 29.9999 11.2118V8.23701C29.9999 8.1061 29.8938 8 29.7629 8Z" fill="#E60120"/>
<path d="M28.7043 8.91089H28.4863V10.5375H28.7043V8.91089Z" fill="#FB0125"/>
<path d="M29.7629 18.0178H27.8122C27.6813 18.0178 27.5752 18.1239 27.5752 18.2548V21.2296C27.5752 21.3605 27.6813 21.4666 27.8122 21.4666H29.7629C29.8938 21.4666 29.9999 21.3605 29.9999 21.2296V18.2548C29.9999 18.124 29.8938 18.0178 29.7629 18.0178Z" fill="#E60120"/>
<path d="M28.7043 18.9292H28.4863V20.5558H28.7043V18.9292Z" fill="#FB0125"/>
<path d="M5 8.23701V11.2118C5 11.3427 5.1061 11.4488 5.23701 11.4488H7.83286C7.96372 11.4488 8.06987 11.3427 8.06987 11.2118V8.23701C8.06987 8.10615 7.96376 8 7.83286 8H5.23701C5.1061 8 5 8.1061 5 8.23701Z" fill="#E60120"/>
<path d="M6.77182 8.91089H5.91113V10.5375H6.77182V8.91089Z" fill="#FB0125"/>
<path d="M5 18.2548V21.2296C5 21.3605 5.1061 21.4666 5.23701 21.4666H7.83286C7.96372 21.4666 8.06987 21.3605 8.06987 21.2296V18.2548C8.06987 18.124 7.96376 18.0178 7.83286 18.0178H5.23701C5.1061 18.0178 5 18.124 5 18.2548Z" fill="#E60120"/>
<path d="M6.77182 18.9292H5.91113V20.5558H6.77182V18.9292Z" fill="#FB0125"/>
<path d="M16.199 18.0178H14.9033C15.0342 18.0178 15.1403 18.1239 15.1403 18.2548V21.2296C15.1403 21.3605 15.0342 21.4666 14.9033 21.4666H16.199C16.3299 21.4666 16.436 21.3605 16.436 21.2296V18.2548C16.436 18.124 16.3299 18.0178 16.199 18.0178Z" fill="#CC111E"/>
<path d="M7.2957 8H6C6.13086 8 6.23701 8.1061 6.23701 8.23701V11.2118C6.23701 11.3427 6.13091 11.4488 6 11.4488H7.2957C7.42656 11.4488 7.53271 11.3427 7.53271 11.2118V8.23701C7.53266 8.1061 7.42656 8 7.2957 8Z" fill="#CC111E"/>
<path d="M7.2957 18.0178H6C6.13086 18.0178 6.23701 18.1239 6.23701 18.2548V21.2296C6.23701 21.3605 6.13091 21.4666 6 21.4666H7.2957C7.42656 21.4666 7.53271 21.3605 7.53271 21.2296V18.2548C7.53266 18.124 7.42656 18.0178 7.2957 18.0178Z" fill="#CC111E"/>
<path d="M25.1001 18.0178H23.8044C23.9353 18.0178 24.0415 18.1239 24.0415 18.2548V21.2296C24.0415 21.3605 23.9354 21.4666 23.8044 21.4666H25.1001C25.231 21.4666 25.3372 21.3605 25.3372 21.2296V18.2548C25.3371 18.124 25.231 18.0178 25.1001 18.0178Z" fill="#CC111E"/>
<path d="M29.2281 13.009H27.9324C28.0632 13.009 28.1694 13.1151 28.1694 13.246V16.2208C28.1694 16.3517 28.0633 16.4579 27.9324 16.4579H29.2281C29.3589 16.4579 29.4651 16.3518 29.4651 16.2208V13.246C29.4651 13.1151 29.359 13.009 29.2281 13.009Z" fill="#CC111E"/>
<path d="M29.2281 8H27.9324C28.0632 8 28.1694 8.1061 28.1694 8.23701V11.2118C28.1694 11.3427 28.0633 11.4488 27.9324 11.4488H29.2281C29.3589 11.4488 29.4651 11.3427 29.4651 11.2118V8.23701C29.4651 8.1061 29.359 8 29.2281 8Z" fill="#CC111E"/>
<path d="M25.0999 8H23.8044C23.9353 8 24.0415 8.1061 24.0415 8.23701V11.2118C24.0415 11.3427 23.9354 11.4488 23.8044 11.4488H25.0999C25.2307 11.4488 25.3369 11.3427 25.3369 11.2118V8.23701C25.3368 8.1061 25.2307 8 25.0999 8Z" fill="#CC111E"/>
<path d="M11.4258 22.9265H10.1301C10.261 22.9265 10.3671 23.0326 10.3671 23.1635V26.1383C10.3671 26.2692 10.261 26.3753 10.1301 26.3753H11.4258C11.5567 26.3753 11.6628 26.2692 11.6628 26.1383V23.1635C11.6628 23.0326 11.5567 22.9265 11.4258 22.9265Z" fill="#CC111E"/>
<path d="M20.3271 22.9265H19.0315C19.1624 22.9265 19.2685 23.0326 19.2685 23.1635V26.1383C19.2685 26.2692 19.1624 26.3753 19.0315 26.3753H20.3272C20.4581 26.3753 20.5642 26.2692 20.5642 26.1383V23.1635C20.5642 23.0326 20.458 22.9265 20.3271 22.9265Z" fill="#CC111E"/>
<path d="M29.2281 22.9265H27.9324C28.0632 22.9265 28.1694 23.0326 28.1694 23.1635V26.1383C28.1694 26.2692 28.0633 26.3753 27.9324 26.3753H29.2281C29.3589 26.3753 29.4651 26.2692 29.4651 26.1383V23.1635C29.4651 23.0326 29.359 22.9265 29.2281 22.9265Z" fill="#CC111E"/>
<path d="M29.2281 18.0178H27.9324C28.0632 18.0178 28.1694 18.1239 28.1694 18.2548V21.2296C28.1694 21.3605 28.0633 21.4666 27.9324 21.4666H29.2281C29.3589 21.4666 29.4651 21.3605 29.4651 21.2296V18.2548C29.4651 18.124 29.359 18.0178 29.2281 18.0178Z" fill="#CC111E"/>
</svg>
