<svg xmlns="http://www.w3.org/2000/svg" viewBox="0 0 128 128"><path fill="#ff5576" d="M102.1,109H91.7l-4-13.8L29.4,109L19,98.6V25.9c0-3.8,3.1-6.9,6.9-6.9h76.2c3.8,0,6.9,3.1,6.9,6.9v76.2C109,105.9,105.9,109,102.1,109z"></path><path fill="#fff" d="M36.3 19H91.69999999999999V57.1H36.3z"></path><path fill="#b73958" d="M91.7 109L84.8 109 72.4 105.5 43.2 109 43.2 74.4 91.7 74.4z"></path><path fill="#fff" d="M43.2 74.4H81.30000000000001V109H43.2z"></path><path fill="#b73958" d="M53.6 81.3H64V98.6H53.6z"></path><path fill="#444b54" d="M102.1,112H29.4c-0.8,0-1.6-0.3-2.1-0.9l-10.4-10.4c-0.6-0.6-0.9-1.3-0.9-2.1V25.9c0-5.5,4.5-9.9,9.9-9.9h76.2c5.5,0,9.9,4.5,9.9,9.9v76.2C112,107.5,107.5,112,102.1,112z M30.6,106h71.4c2.2,0,3.9-1.8,3.9-3.9V25.9c0-2.2-1.8-3.9-3.9-3.9H25.9c-2.2,0-3.9,1.8-3.9,3.9v71.4L30.6,106z"></path></svg>